<svg width="342" height="56" viewBox="0 0 342 56" fill="none" xmlns="http://www.w3.org/2000/svg">
<path d="M301.303 34.2161C301.303 24.3225 309.603 15.9561 320.227 15.9561C331.117 15.9561 339.151 24.3225 339.151 34.2161V36.2081H312.923C313.653 40.9225 316.243 43.5121 320.227 43.5121C322.883 43.5121 324.543 42.7153 325.539 41.7193C326.137 41.1881 326.535 40.5905 326.867 39.8601H338.819C338.022 42.2505 336.827 44.3753 335.234 46.1681C332.578 49.3553 327.797 52.4761 320.227 52.4761C309.603 52.4761 301.303 44.1097 301.303 34.2161ZM313.255 30.5641H327.199C326.469 27.5761 323.945 24.9201 320.227 24.9201C316.509 24.9201 313.985 27.5761 313.255 30.5641Z" fill="black"/>
<path d="M274.748 25.916V16.952H279.064V9.64795H290.352V16.952H299.316V25.916H290.352V42.516H299.98V51.48H279.064V25.916H274.748Z" fill="black"/>
<path d="M250.186 25.916V16.952H254.502V9.64795H265.79V16.952H274.754V25.916H265.79V42.516H275.418V51.48H254.502V25.916H250.186Z" fill="black"/>
<path d="M211.342 34.2161C211.342 24.3225 219.642 15.9561 230.266 15.9561C241.155 15.9561 249.19 24.3225 249.19 34.2161V36.2081H222.962C223.692 40.9225 226.282 43.5121 230.266 43.5121C232.922 43.5121 234.582 42.7153 235.578 41.7193C236.175 41.1881 236.574 40.5905 236.906 39.8601H248.858C248.061 42.2505 246.866 44.3753 245.272 46.1681C242.616 49.3553 237.835 52.4761 230.266 52.4761C219.642 52.4761 211.342 44.1097 211.342 34.2161ZM223.294 30.5641H237.238C236.507 27.5761 233.984 24.9201 230.266 24.9201C226.547 24.9201 224.024 27.5761 223.294 30.5641Z" fill="black"/>
<path d="M192.104 51.48V5H203.392V42.516H211.028V51.48H192.104Z" fill="black"/>
<path d="M149.971 34.2161C149.971 22.8617 157.009 15.9561 165.243 15.9561C168.696 15.9561 171.219 17.4169 173.012 18.8113C174.008 19.6081 174.871 20.5377 175.535 21.6001H176.199V16.9521H187.487V51.4801H176.199V46.8321H175.535C174.871 47.9609 174.008 48.8905 173.012 49.6873C171.219 51.0817 168.696 52.4761 165.243 52.4761C157.009 52.4761 149.971 45.5705 149.971 34.2161ZM161.591 34.2161C161.591 39.8601 164.579 42.8481 168.895 42.8481C173.211 42.8481 176.199 39.8601 176.199 34.2161C176.199 28.5721 173.211 25.5841 168.895 25.5841C164.579 25.5841 161.591 28.5721 161.591 34.2161Z" fill="black"/>
<path d="M107.145 51.48V5H129.721C141.408 5 148.977 12.636 148.977 21.932C148.977 31.228 141.408 38.864 129.721 38.864H119.429V51.48H107.145ZM119.429 27.576H129.389C134.104 27.576 136.361 25.3184 136.361 21.932C136.361 18.5456 134.104 16.288 129.389 16.288H119.429V27.576Z" fill="black"/>
<path d="M64.4144 39.52C64.4144 33.544 68.7968 29.1616 74.5736 29.1616C80.3504 29.1616 84.7328 33.544 84.7328 39.3208V40.516H67.6016C68.0399 44.2211 70.9083 46.8904 74.5736 46.8904C76.964 46.8904 78.5576 46.0139 79.6333 45.0976C80.2309 44.5797 80.7488 43.9821 81.1472 43.3048H84.3344C83.8563 44.5399 83.1791 45.6554 82.3026 46.6115C80.7488 48.245 78.3584 49.8784 74.5736 49.8784C68.7968 49.8784 64.4144 45.496 64.4144 39.52ZM67.6813 37.7272H81.3464C80.9082 34.7392 78.3983 32.1496 74.5736 32.1496C70.749 32.1496 68.1992 34.7392 67.6813 37.7272Z" fill="black"/>
<path d="M42.4994 49.4798V21.5918H45.6866V32.5478H45.7264C46.1248 31.9104 46.6428 31.3526 47.2802 30.8745C48.3559 30.0379 50.069 29.1614 52.4594 29.1614C57.2402 29.1614 60.4274 32.3486 60.4274 37.727V49.4798H57.2402V37.9262C57.2402 33.9422 55.049 32.1494 51.8618 32.1494C48.2364 32.1494 45.6866 34.739 45.6866 38.723V49.4798H42.4994Z" fill="black"/>
<path d="M16.6096 24.9782V21.5918H39.3184V24.9782H29.7568V49.4798H26.1712V24.9782H16.6096Z" fill="black"/>
<path d="M3 35.9265C3 29.9505 5.35056 25.329 7.7808 22.1817C9.1752 20.3092 10.7688 18.7156 12.5616 17.4009L14.1552 19.7913C12.6811 21.0263 11.4062 22.4207 10.2509 24.0542C8.33856 26.843 6.3864 30.8668 6.3864 35.9265C6.3864 41.0658 8.33856 45.0498 10.2509 47.7988C11.4062 49.4322 12.6811 50.8266 14.1552 52.0617L12.5616 54.4521C10.7688 53.1374 9.1752 51.5438 7.7808 49.6713C5.35056 46.5239 3 41.9025 3 35.9265Z" fill="black"/>
<path d="M90.8725 47.7988C92.7849 45.01 94.7769 41.0658 94.7769 35.9265C94.7769 30.827 92.8247 26.843 90.8725 24.0542C89.7172 22.4207 88.4423 21.0263 87.0081 19.7913L88.6017 17.4009C90.3945 18.7156 91.9881 20.3092 93.3825 22.1817C95.733 25.4087 98.1633 29.9106 98.1633 35.9265C98.1633 41.9423 95.733 46.4442 93.3825 49.6713C91.9881 51.5438 90.3945 53.1374 88.6017 54.4521L87.0081 52.0617C88.4423 50.8266 89.7172 49.4322 90.8725 47.7988Z" fill="black"/>
</svg>
